<svg id="Capa_1" enable-background="new 0 0 496.76 496.76" height="512" viewBox="0 0 496.76 496.76" width="512" xmlns="http://www.w3.org/2000/svg"><g><path d="m434.38 147.76v339c0 5.523-4.477 10-10 10h-352c-5.523 0-10-4.477-10-10v-339z" fill="#407194"/><path d="m92.38 496.76h-20c-5.52 0-10-4.48-10-10v-339h20v339c0 5.52 4.48 10 10 10z" fill="#365f7e"/><path d="m120.38 281.76h256c5.523 0 10 4.477 10 10v110c0 5.523-4.477 10-10 10h-256c-5.523 0-10-4.477-10-10v-110c0-5.523 4.477-10 10-10z" fill="#b2e5fb"/><path d="m376.38 391.76h-241c-2.761 0-5-2.239-5-5v-95c0-5.52 4.48-10 10-10h-20c-5.523 0-10 4.477-10 10v90 20c0 5.523 4.477 10 10 10h20 236c5.523 0 10-4.477 10-10v-20c0 5.52-4.48 10-10 10z" fill="#91dafa"/><g fill="#efedef"><path d="m271.72 229.413 16.295-14.979c3.05-2.803 3.25-7.548.446-10.597-2.803-3.05-7.548-3.25-10.597-.446l-10.984 10.097v-5.128c0-4.143-3.357-7.5-7.5-7.5s-7.5 3.357-7.5 7.5v43.799c0 4.143 3.357 7.5 7.5 7.5s7.5-3.357 7.5-7.5v-6.573l12.408 11.971c1.455 1.404 3.332 2.103 5.206 2.103 1.965 0 3.927-.768 5.398-2.293 2.876-2.98 2.791-7.729-.19-10.604z"/><path d="m164.274 200.861c-4.143 0-7.5 3.357-7.5 7.5v43.799c0 4.143 3.357 7.5 7.5 7.5s7.5-3.357 7.5-7.5v-43.799c0-4.143-3.358-7.5-7.5-7.5z"/><path d="m332.486 216.061c4.143 0 7.5-3.357 7.5-7.5s-3.357-7.5-7.5-7.5h-18.286c-4.143 0-7.5 3.357-7.5 7.5v43.398c0 4.143 3.357 7.5 7.5 7.5h18.286c4.143 0 7.5-3.357 7.5-7.5s-3.357-7.5-7.5-7.5h-10.786v-6.699h9.438c4.143 0 7.5-3.357 7.5-7.5s-3.357-7.5-7.5-7.5h-9.438v-6.699z"/><path d="m234.49 240.228c-3.175-2.66-7.904-2.241-10.565.933-.318.38-.658.731-1.017 1.05-1.824 1.625-4.189 2.449-7.03 2.449-7.939 0-14.399-6.46-14.399-14.399s6.46-14.399 14.399-14.399c2.887 0 5.668.849 8.046 2.455 3.433 2.318 8.095 1.416 10.413-2.017 2.318-3.432 1.416-8.094-2.017-10.413-4.866-3.287-10.552-5.025-16.442-5.025-16.211 0-29.399 13.188-29.399 29.399s13.188 29.399 29.399 29.399c6.537 0 12.418-2.16 17.002-6.244.9-.8 1.756-1.683 2.543-2.622 2.66-3.176 2.242-7.906-.933-10.566z"/><path d="m134.568 200.861h-24.188c-4.143 0-7.5 3.357-7.5 7.5s3.357 7.5 7.5 7.5h4.545v36.299c0 4.143 3.357 7.5 7.5 7.5s7.5-3.357 7.5-7.5v-36.299h4.644c4.143 0 7.5-3.357 7.5-7.5s-3.358-7.5-7.501-7.5z"/><path d="m386.38 200.861h-24.188c-4.143 0-7.5 3.357-7.5 7.5s3.357 7.5 7.5 7.5h4.546v36.299c0 4.143 3.357 7.5 7.5 7.5s7.5-3.357 7.5-7.5v-36.299h4.643c4.143 0 7.5-3.357 7.5-7.5s-3.358-7.5-7.501-7.5z"/></g><path d="m346.523 128.76h-174.749l76.486-128.76h.25z" fill="#efedef"/><path d="m306.33 114.76h-82.623c-3.293 0-5.687-3.129-4.826-6.307l29.379-108.453-76.486 128.76 76.486 16.755 65.12-16.755z" fill="#e3e0e4"/><g fill="#365f7e"><path d="m99.73 147.76c-.7 12.58-6.31 23.87-14.92 31.99-6.16 5.81-13.87 10-22.43 11.89v-43.88z"/><path d="m165.16 147.76c-.7 12.58-6.31 23.87-14.92 31.99-8.56 8.06-20.06 13.01-32.72 13.01s-24.16-4.95-32.71-13.01c-8.62-8.12-14.22-19.41-14.92-31.99z"/><path d="m230.59 147.76c-.7 12.58-6.31 23.87-14.92 31.99-8.55 8.06-20.07 13.01-32.72 13.01s-24.16-4.95-32.71-13.01c-8.62-8.12-14.22-19.41-14.92-31.99z"/><path d="m296.01 147.76c-.7 12.58-6.3 23.87-14.92 31.99-8.55 8.06-20.05 13.01-32.71 13.01s-24.16-4.95-32.71-13.01c-8.62-8.12-14.22-19.41-14.92-31.99z"/><path d="m361.44 147.76c-.7 12.58-6.3 23.87-14.92 31.99-8.55 8.06-20.06 13.01-32.71 13.01s-24.17-4.95-32.72-13.01c-8.61-8.12-14.22-19.41-14.92-31.99z"/><path d="m426.87 147.76c-.7 12.58-6.3 23.87-14.92 31.99-8.55 8.06-20.05 13.01-32.71 13.01s-24.16-4.95-32.72-13.01c-8.61-8.12-14.22-19.41-14.92-31.99z"/><path d="m434.38 147.76v43.88c-8.56-1.89-16.27-6.08-22.43-11.89-8.61-8.12-14.22-19.41-14.92-31.99z"/></g><path d="m52.094 177.76c-18.068 0-32.714-14.647-32.714-32.714v-16.286h65.429v16.286c0 18.067-14.647 32.714-32.715 32.714z" fill="#dc4955"/><path d="m80.45 161.38c-5.66 9.79-16.24 16.38-28.36 16.38-18.06 0-32.71-14.65-32.71-32.71v-16.29h12v4.29c0 18.06 14.65 32.71 32.71 32.71 5.96 0 11.55-1.59 16.36-4.38z" fill="#d82f3c"/><path d="m117.523 177.76c-18.068 0-32.714-14.647-32.714-32.714v-16.286l32.714-7 32.714 7v16.286c0 18.067-14.647 32.714-32.714 32.714z" fill="#efedef"/><path d="m182.951 177.76c-18.068 0-32.714-14.647-32.714-32.714v-16.286h65.429v16.286c0 18.067-14.647 32.714-32.715 32.714z" fill="#dc4955"/><path d="m248.38 177.76c-18.068 0-32.714-14.647-32.714-32.714v-16.286h65.429v16.286c-.001 18.067-14.647 32.714-32.715 32.714z" fill="#efedef"/><path d="m313.809 177.76c-18.068 0-32.714-14.647-32.714-32.714v-16.286h65.429v16.286c-.001 18.067-14.648 32.714-32.715 32.714z" fill="#dc4955"/><path d="m379.237 177.76c-18.068 0-32.714-14.647-32.714-32.714v-16.286l32.712-7 32.716 7v16.286c0 18.067-14.646 32.714-32.714 32.714z" fill="#efedef"/><path d="m444.666 177.76c-18.068 0-32.714-14.647-32.714-32.714v-16.286h65.429v16.286c-.001 18.067-14.648 32.714-32.715 32.714z" fill="#dc4955"/><path d="m146.067 161.38c-5.66 9.79-16.24 16.38-28.36 16.38-18.06 0-32.71-14.65-32.71-32.71v-16.29h12v4.29c0 18.06 14.65 32.71 32.71 32.71 5.96 0 11.55-1.59 16.36-4.38z" fill="#e3e0e4"/><path d="m211.307 161.38c-5.66 9.79-16.24 16.38-28.36 16.38-18.06 0-32.71-14.65-32.71-32.71v-16.29h12v4.29c0 18.06 14.65 32.71 32.71 32.71 5.96 0 11.55-1.59 16.36-4.38z" fill="#d82f3c"/><path d="m276.736 161.38c-5.66 9.79-16.24 16.38-28.36 16.38-18.06 0-32.71-14.65-32.71-32.71v-16.29h12v4.29c0 18.06 14.65 32.71 32.71 32.71 5.96 0 11.55-1.59 16.36-4.38z" fill="#e3e0e4"/><path d="m342.164 161.38c-5.66 9.79-16.24 16.38-28.36 16.38-18.06 0-32.71-14.65-32.71-32.71v-16.29h12v4.29c0 18.06 14.65 32.71 32.71 32.71 5.96 0 11.55-1.59 16.36-4.38z" fill="#d82f3c"/><path d="m407.593 161.38c-5.66 9.79-16.24 16.38-28.36 16.38-18.06 0-32.71-14.65-32.71-32.71v-16.29h12v4.29c0 18.06 14.65 32.71 32.71 32.71 5.96 0 11.55-1.59 16.36-4.38z" fill="#e3e0e4"/><path d="m473.022 161.38c-5.66 9.79-16.24 16.38-28.36 16.38-18.06 0-32.71-14.65-32.71-32.71v-16.29h12v4.29c0 18.06 14.65 32.71 32.71 32.71 5.959 0 11.549-1.59 16.36-4.38z" fill="#d82f3c"/><path d="m248.26 0-64.88 128.76h-164l224.09-127.46c1.49-.84 3.14-1.28 4.79-1.3z" fill="#dc4955"/><path d="m243.47 1.3-197.718 112.46h-.002l-26.37 15h40 124l7.56-15h-93.89c-4.902 0-6.876-6.321-2.846-9.111z" fill="#d82f3c"/><path d="m477.38 128.76h-164l-64.87-128.76c1.65.02 3.29.46 4.78 1.3z" fill="#dc4955"/><path d="m477.38 128.76h-164l-7.05-14h146.44z" fill="#d82f3c"/></g></svg>