<svg height="512" viewBox="0 0 512 512" width="512" xmlns="http://www.w3.org/2000/svg"><g id="flat"><path d="m272 24h32v232h-32z" fill="#533222"/><path d="m80 24h32v232h-32z" fill="#533222"/><path d="m312 144h-40-160-40v-96h40 160 40z" fill="#0296e5"/><path d="m72 256h240v48h-240z" fill="#0296e5"/><path d="m312 256h32v48h-32z" fill="#533222"/><path d="m40 256h32v48h-32z" fill="#533222"/><path d="m48 176h64v32h-64z" fill="#683b0d"/><path d="m272 176h64v32h-64z" fill="#683b0d" transform="matrix(-1 0 0 -1 608 384)"/><path d="m80 488h48l176-184h-48z" fill="#44291c"/><path d="m360 432h-20a12.013 12.013 0 0 1 -12-12v-40a12.013 12.013 0 0 1 12-12h36a8 8 0 0 1 0 16h-32v32h16a8 8 0 0 1 0 16z" fill="#ea9d2d"/><path d="m104 144v-32a8 8 0 0 1 16 0v32z" fill="#0276b4"/><path d="m112 96a8 8 0 0 1 -8-8v-16a8 8 0 0 1 16 0v16a8 8 0 0 1 -8 8z" fill="#0276b4"/><path d="m280 48v32a8 8 0 0 1 -16 0v-32z" fill="#0276b4"/><path d="m264 144v-32a8 8 0 0 1 16 0v32z" fill="#0276b4"/><path d="m304 488h-48l-176-184h48z" fill="#533222"/><g fill="#44291c"><path d="m80 208h32v16h-32z"/><path d="m80 144h32v16h-32z"/><path d="m272 144h32v16h-32z"/><path d="m272 208h32v16h-32z"/></g><path d="m432 328 8-32h-64l8 32-48 160h144z" fill="#fbb540"/></g></svg>