<svg id="Capa_1" enable-background="new 0 0 512 512" height="512" viewBox="0 0 512 512" width="512" xmlns="http://www.w3.org/2000/svg"><g><g><path d="m7.5 405.1v66.268c0 18.298 14.834 33.133 33.132 33.133h331.334c18.299 0 33.133-14.834 33.133-33.133v-66.268z" fill="#ddf1fc"/><path d="m382.099 405.1v66.268c0 18.299-14.834 33.133-33.132 33.133h23c18.298 0 33.132-14.834 33.132-33.133v-66.268z" fill="#355b90"/><path d="m371.966 7.5c18.298 0 33.132 14.834 33.132 33.132v364.468c0 18.299-14.834 33.133-33.132 33.133h-331.334c-18.298 0-33.132-14.834-33.132-33.133v-364.468c0-18.298 14.834-33.132 33.132-33.132z" fill="#e9f5fc"/><g fill="#355b90"><path d="m90.332 504.5h-33.133v-25.133c0-4.418 3.582-8 8-8h17.133c4.418 0 8 3.582 8 8z"/><path d="m156.599 504.5h-33.133v-25.133c0-4.418 3.582-8 8-8h17.133c4.418 0 8 3.582 8 8z"/><path d="m222.866 504.5h-33.133v-25.133c0-4.418 3.582-8 8-8h17.133c4.418 0 8 3.582 8 8z"/></g><path d="m214.866 471.366h-17.133c-1.037 0-2.024.204-2.933.563 2.965 1.171 5.067 4.056 5.067 7.437v25.134h23v-25.133c-.001-4.419-3.583-8.001-8.001-8.001z" fill="#2b4983"/><path d="m148.599 471.366h-17.133c-1.037 0-2.024.204-2.933.563 2.965 1.171 5.067 4.056 5.067 7.437v25.134h23v-25.133c-.001-4.419-3.583-8.001-8.001-8.001z" fill="#2b4983"/><path d="m82.332 471.366h-17.133c-1.037 0-2.024.204-2.933.563 2.965 1.171 5.067 4.056 5.067 7.437v25.134h23v-25.133c-.001-4.419-3.582-8.001-8.001-8.001z" fill="#2b4983"/><g><g><circle cx="57.199" cy="57.2" fill="#355b90" r="16.567"/></g></g><g><g><circle cx="355.399" cy="57.2" fill="#355b90" r="16.567"/></g></g><ellipse cx="206.299" cy="222.867" fill="#1c3173" rx="165.667" ry="165.667" transform="matrix(.707 -.707 .707 .707 -97.167 211.152)"/><path d="m206.299 57.2c-3.851 0-7.668.143-11.454.401 86.151 5.885 154.213 77.622 154.213 165.266s-68.062 159.381-154.213 165.266c3.786.259 7.603.401 11.454.401 91.495 0 165.667-74.172 165.667-165.667 0-91.496-74.172-165.667-165.667-165.667z" fill="#162664"/><circle cx="206.299" cy="222.867" fill="#7fe0fc" r="49.7"/><ellipse cx="206.299" cy="222.867" fill="#dcdcdc" rx="16.567" ry="16.567" transform="matrix(.707 -.707 .707 .707 -97.167 211.152)"/><path d="m206.299 173.167c-3.96 0-7.807.477-11.5 1.352 21.901 5.191 38.2 24.86 38.2 48.348s-16.299 43.157-38.2 48.348c3.693.875 7.54 1.352 11.5 1.352 27.449 0 49.7-22.251 49.7-49.7s-22.251-49.7-49.7-49.7z" fill="#6cbef2"/><path d="m371.967 7.5h-23c18.298 0 33.132 14.834 33.132 33.132v364.468c0 18.299-14.834 33.132-33.132 33.132h23c18.298 0 33.132-14.834 33.132-33.132v-364.468c0-18.298-14.834-33.132-33.132-33.132z" fill="#c5e0fa"/><g><path d="m480.07 189.737c-10.796-.179-20.047 6.53-23.654 16.02-.124.325-.429.543-.777.543-.464 0-.84-.376-.84-.84v-56.562c0-13.567-10.629-25.071-24.191-25.422-9.128-.236-17.174 4.455-21.683 11.601-.386.612-1.042 1.001-1.766 1.001-1.138 0-2.06-.922-2.06-2.06v-18.274c0-13.932-11.402-25.67-25.331-25.405-13.502.257-24.369 11.282-24.369 24.846v5.209c0 .719-.583 1.302-1.302 1.302-.503 0-.951-.295-1.17-.748-4.001-8.274-12.449-13.996-22.244-14.047-13.879-.073-24.984 11.602-24.984 25.481v104.667c0 .633-.513 1.147-1.147 1.147-.453 0-.854-.271-1.04-.683-4.014-8.9-13.114-15.012-23.597-14.628-13.455.493-23.916 11.963-23.916 25.427v90.524c0 34.167 25.859 62.295 59.073 65.881 4.082.441 7.193 3.848 7.193 7.954v83.548c0 4.575 3.709 8.284 8.284 8.284h115.966c4.575 0 8.284-3.709 8.284-8.283v-87.288c0-3.403 2.158-6.419 5.369-7.546 25.818-9.054 44.331-33.64 44.331-62.55v-123.69c0-13.657-10.776-25.183-24.429-25.409z" fill="#edbc98"/><path d="m480.07 189.737c-10.796-.179-20.047 6.53-23.654 16.02-.124.325-.429.543-.777.543-.464 0-.84-.376-.84-.84v-56.562c0-13.567-10.629-25.071-24.191-25.422-9.128-.236-17.174 4.455-21.683 11.601-.386.612-1.042 1.001-1.766 1.001-1.138 0-2.06-.922-2.06-2.06v-18.274c0-13.932-11.402-25.67-25.331-25.405-13.502.257-24.369 11.282-24.369 24.846v5.209c0 .719-.583 1.302-1.302 1.302-.503 0-.951-.295-1.17-.748-4.001-8.274-12.449-13.996-22.244-14.047-13.879-.073-24.984 11.602-24.984 25.481v104.667c0 .633-.513 1.147-1.147 1.147-.453 0-.854-.271-1.04-.683-4.014-8.9-13.114-15.012-23.597-14.628-13.455.493-23.916 11.963-23.916 25.427v90.524c0 34.167 25.859 62.295 59.073 65.881 4.082.441 7.193 3.848 7.193 7.954v83.548c0 4.575 3.709 8.284 8.284 8.284h115.966c4.575 0 8.284-3.709 8.284-8.283v-87.288c0-3.403 2.158-6.419 5.369-7.546 25.818-9.054 44.331-33.64 44.331-62.55v-123.69c0-13.657-10.776-25.183-24.429-25.409z" fill="#edbc98"/><path d="m480.07 189.737c-4.334-.072-8.409.981-11.98 2.863 8.002 4.278 13.409 12.874 13.409 22.543v123.69c0 28.91-18.513 53.496-44.331 62.55-3.211 1.126-5.369 4.143-5.369 7.546v87.288c0 4.575-3.708 8.284-8.284 8.284h23c4.575 0 8.284-3.708 8.284-8.284v-87.288c0-3.403 2.158-6.419 5.369-7.546 25.818-9.054 44.331-33.64 44.331-62.55v-123.69c0-13.654-10.776-25.18-24.429-25.406z" fill="#d9997c"/><path d="m322.266 471.367c-9.15 0-16.567-7.417-16.567-16.567 0-9.149 7.417-16.567 16.567-16.567h132.533c9.15 0 16.567 7.417 16.567 16.567s-7.417 16.567-16.567 16.567z" fill="#7fe0fc"/><path d="m454.799 438.233h-23c9.149 0 16.567 7.417 16.567 16.566 0 9.15-7.417 16.567-16.567 16.567h23c9.149 0 16.567-7.417 16.567-16.567 0-9.149-7.417-16.566-16.567-16.566z" fill="#6cbef2"/></g></g><g><path d="m479.649 182.233c-6.381 0-12.332 1.865-17.35 5.067v-38.984c0-17.838-14.512-32.35-32.35-32.35-6.382 0-12.332 1.865-17.35 5.067v-80.401c0-22.404-18.227-40.632-40.632-40.632h-284.467c-4.142 0-7.5 3.357-7.5 7.5s3.358 7.5 7.5 7.5h284.467c14.134 0 25.632 11.499 25.632 25.633v47.267c-5.018-3.202-10.968-5.067-17.35-5.067-14.457 0-26.728 9.534-30.86 22.644-5.31-3.819-11.814-6.077-18.84-6.077-.915 0-1.818.048-2.714.122-32.594-32.157-75.597-49.822-121.536-49.822-95.484 0-173.166 77.683-173.166 173.167s77.682 173.166 173.166 173.166c20.322 0 40.152-3.483 59.039-10.338 12.043 14.605 29.586 24.514 49.428 26.527v18.512h-274.133c-14.134-.001-25.633-11.5-25.633-25.633v-.001-364.467c0-14.134 11.499-25.633 25.633-25.633h16.566c4.142 0 7.5-3.357 7.5-7.5s-3.358-7.5-7.5-7.5h-16.566c-22.405 0-40.632 18.228-40.632 40.633v430.734c0 22.405 18.227 40.633 40.632 40.633h281.633c1.207 0 2.344-.292 3.354-.799 1.553.512 3.207.799 4.929.799h115.967c8.703 0 15.784-7.08 15.784-15.783v-18.553c9.608-3.16 16.566-12.212 16.566-22.864s-6.959-19.704-16.566-22.863v-23.388c28.89-10.002 49.7-37.465 49.7-69.714v-124.25c0-17.839-14.513-32.352-32.351-32.352zm-273.35 198.8c-87.213 0-158.166-70.953-158.166-158.166 0-87.214 70.953-158.167 158.166-158.167 39.529 0 76.676 14.325 105.74 40.541-8.359 5.855-13.84 15.551-13.84 26.508v88.684c-5.018-3.203-10.969-5.068-17.35-5.068-6.407 0-12.38 1.88-17.411 5.107-1.261-30.433-26.402-54.806-57.139-54.806-31.54 0-57.2 25.66-57.2 57.2s25.66 57.199 57.2 57.199c16.692 0 31.734-7.189 42.2-18.631v77.399c0 12.24 3.014 23.783 8.312 33.955-16.215 5.469-33.165 8.245-50.512 8.245zm0-115.967c-23.269 0-42.2-18.931-42.2-42.199 0-23.27 18.931-42.2 42.2-42.2s42.2 18.931 42.2 42.2-18.931 42.199-42.2 42.199zm-191.299 206.301v-34.767c6.997 5.705 15.921 9.134 25.632 9.134h259.346c-1.143 2.8-1.779 5.86-1.779 9.066 0 10.652 6.959 19.704 16.566 22.864v18.553c0 .264.027.522.04.783h-84.44v-17.633c0-8.547-6.953-15.5-15.5-15.5h-17.133c-8.547 0-15.5 6.953-15.5 15.5v17.633h-18.132v-17.633c0-8.547-6.953-15.5-15.5-15.5h-17.133c-8.547 0-15.5 6.953-15.5 15.5v17.633h-18.134v-17.633c0-8.547-6.953-15.5-15.5-15.5h-17.134c-8.547 0-15.5 6.953-15.5 15.5v17.633h-9.066c-14.134 0-25.633-11.499-25.633-25.633zm49.699 25.633v-17.633c0-.275.224-.5.5-.5h17.134c.276 0 .5.225.5.5v17.633zm66.267 0v-17.633c0-.275.224-.5.5-.5h17.134c.276 0 .5.225.5.5v17.633zm66.267 0v-17.633c0-.275.224-.5.5-.5h17.133c.276 0 .5.225.5.5v17.633zm257.567-33.133h-84.4c-4.142 0-7.5 3.357-7.5 7.5s3.358 7.5 7.5 7.5h76.9v17.35c0 .432-.352.783-.784.783h-115.967c-.432 0-.783-.352-.783-.783v-17.35h10.734c4.142 0 7.5-3.357 7.5-7.5s-3.358-7.5-7.5-7.5h-18.234c-4.999 0-9.066-4.067-9.066-9.067 0-4.999 4.067-9.066 9.066-9.066h132.534c4.999 0 9.066 4.067 9.066 9.066 0 5-4.067 9.067-9.066 9.067zm42.2-125.033c0 32.404-26.363 58.767-58.767 58.767h-16.567c-4.142 0-7.5 3.357-7.5 7.5s3.358 7.5 7.5 7.5h16.567c3.072 0 6.093-.211 9.067-.577v18.71h-117.534v-18.133h9.067c4.142 0 7.5-3.357 7.5-7.5s-3.358-7.5-7.5-7.5h-16.567c-32.404 0-58.767-26.362-58.767-58.767v-91.117c0-9.567 7.783-17.351 17.35-17.351s17.35 7.783 17.35 17.351v57.983c0 4.143 3.358 7.5 7.5 7.5s7.5-3.357 7.5-7.5v-173.95c0-9.567 7.783-17.351 17.35-17.351s17.35 7.783 17.35 17.351v124.25c0 4.143 3.358 7.5 7.5 7.5s7.5-3.357 7.5-7.5v-140.817c0-9.566 7.783-17.35 17.35-17.35s17.35 7.783 17.35 17.35v140.817c0 4.143 3.358 7.5 7.5 7.5s7.5-3.357 7.5-7.5v-107.684c0-9.566 7.783-17.35 17.35-17.35s17.35 7.783 17.35 17.35v107.684c0 4.143 3.358 7.5 7.5 7.5s7.5-3.357 7.5-7.5v-41.426c.005-9.563 7.786-17.341 17.35-17.341 9.567 0 17.35 7.783 17.35 17.351v124.25z"/><path d="m33.133 57.2c0 13.271 10.796 24.066 24.066 24.066 13.271 0 24.067-10.796 24.067-24.066s-10.796-24.067-24.067-24.067c-13.27 0-24.066 10.797-24.066 24.067zm33.133 0c0 4.999-4.067 9.066-9.067 9.066-4.999 0-9.066-4.067-9.066-9.066 0-5 4.067-9.067 9.066-9.067 5 0 9.067 4.067 9.067 9.067z"/><path d="m379.466 57.2c0-13.271-10.796-24.067-24.067-24.067-13.27 0-24.066 10.797-24.066 24.067s10.796 24.066 24.066 24.066c13.271.001 24.067-10.795 24.067-24.066zm-33.133 0c0-5 4.067-9.067 9.066-9.067 5 0 9.067 4.067 9.067 9.067 0 4.999-4.067 9.066-9.067 9.066-4.999.001-9.066-4.067-9.066-9.066z"/><path d="m57.199 412.6c4.142 0 7.5-3.357 7.5-7.5s-3.358-7.5-7.5-7.5h-16.566c-4.142 0-7.5 3.357-7.5 7.5s3.358 7.5 7.5 7.5z"/><path d="m106.899 412.6c4.142 0 7.5-3.357 7.5-7.5s-3.358-7.5-7.5-7.5h-16.566c-4.142 0-7.5 3.357-7.5 7.5s3.358 7.5 7.5 7.5z"/><path d="m206.299 198.8c-13.27 0-24.066 10.797-24.066 24.067s10.796 24.066 24.066 24.066c13.271 0 24.067-10.796 24.067-24.066s-10.796-24.067-24.067-24.067zm0 33.134c-4.999 0-9.066-4.067-9.066-9.066 0-5 4.067-9.067 9.066-9.067 5 0 9.067 4.067 9.067 9.067 0 4.998-4.067 9.066-9.067 9.066z"/><path d="m213.799 90.333c0-4.143-3.358-7.5-7.5-7.5-77.214 0-140.033 62.819-140.033 140.034 0 4.143 3.358 7.5 7.5 7.5s7.5-3.357 7.5-7.5c0-68.944 56.09-125.034 125.033-125.034 4.142 0 7.5-3.357 7.5-7.5z"/></g></g></svg>