<svg height="480pt" viewBox="0 -80 480 480" width="480pt" xmlns="http://www.w3.org/2000/svg"><path d="m472 0h-464c-4.417969 0-8 3.582031-8 8v304c0 4.417969 3.582031 8 8 8h464c4.417969 0 8-3.582031 8-8v-216c0-4.417969-3.582031-8-8-8s-8 3.582031-8 8v168.207031c-6.882812-5.292969-15.316406-8.175781-24-8.207031h-400c-8.683594.03125-17.117188 2.914062-24 8.207031v-208.414062c6.882812 5.292969 15.316406 8.175781 24 8.207031h400c8.683594-.03125 17.117188-2.914062 24-8.207031v8.207031c0 4.417969 3.582031 8 8 8s8-3.582031 8-8v-56c0-4.417969-3.582031-8-8-8zm-32 272c13.253906 0 24 10.746094 24 24v8h-40v-32zm-32 0v32h-32v-32zm-48 0v32h-32v-32zm-48 0v32h-32v-32zm-48 0v32h-48v-32zm-64 0v32h-32v-32zm-48 0v32h-32v-32zm-48 0v32h-32v-32zm-64 0h16v32h-40v-8c0-13.253906 10.746094-24 24-24zm0-224c-13.253906 0-24-10.746094-24-24v-8h40v32zm32 0v-32h32v32zm48 0v-32h32v32zm48 0v-32h32v32zm48 0v-32h48v32zm64 0v-32h32v32zm48 0v-32h32v32zm48 0v-32h32v32zm64 0h-16v-32h40v8c0 13.253906-10.746094 24-24 24zm0 0"/><path d="m144 160c.058594 52.996094 43.003906 95.941406 96 96 4.417969 0 8-3.582031 8-8s-3.582031-8-8-8c-44.183594 0-80-35.816406-80-80s35.816406-80 80-80 80 35.816406 80 80c0 4.417969 3.582031 8 8 8s8-3.582031 8-8c0-53.019531-42.980469-96-96-96s-96 42.980469-96 96zm0 0"/><path d="m224 216c0 4.417969 3.582031 8 8 8h16c4.417969 0 8-3.582031 8-8s-3.582031-8-8-8v-104c0-3.234375-1.949219-6.152344-4.9375-7.390625s-6.429688-.550781-8.71875 1.734375l-16 16c-3.03125 3.140625-2.988281 8.128906.097656 11.214844 3.085938 3.085937 8.074219 3.128906 11.214844.097656l2.34375-2.34375v84.6875c-4.417969 0-8 3.582031-8 8zm0 0"/></svg>